<svg width="640" height="637" viewBox="0 0 640 637" fill="none" xmlns="http://www.w3.org/2000/svg">
<path d="M167.04 527.356C169.982 510.126 187.157 419.07 257.375 383.453C342.367 340.365 482.074 390.131 554.619 528.664" stroke="#222222" stroke-width="3" stroke-miterlimit="10" stroke-linecap="round"/>
<path d="M211.271 320.707C207.11 323.6 200.509 327.184 193.783 325.6C177.438 321.751 179.136 291.994 160.729 280.814C153.299 276.299 140.374 273.444 116.561 283.241C104.14 285.756 91.5543 282.273 84.589 273.67C74.5309 261.282 76.9197 239.172 93.4779 225.878C100.269 221.126 107.594 217.187 115.304 214.144C134.44 206.598 148.094 208.472 167.091 207.164C193.984 205.315 207.424 204.397 219.62 198.298C242.15 187.041 237.875 173.144 270.74 147.991C292.013 131.641 303.115 130.257 310.508 130.962C320.115 131.986 329.142 136.058 336.269 142.583L211.271 320.707Z" fill="#FFE9F8" stroke="#222222" stroke-width="3" stroke-miterlimit="10"/>
<path d="M248.99 340.729C250.725 336.805 264.077 307.464 279.566 308.105C294.402 308.709 310.269 336.529 311.903 379.378C319.447 390.017 320.478 403.563 314.619 414.077C306.799 428.138 288.858 432.791 277.291 428.439C263.147 423.107 259.06 404.544 253.403 378.774C250.675 366.27 249.197 353.526 248.99 340.729Z" fill="#FFE9F8" stroke="#222222" stroke-width="3" stroke-miterlimit="10"/>
<path d="M282.131 346.175C282.42 351.646 283.916 366.663 294.817 374.473C310.419 385.641 334.911 374.674 341.009 371.957C363.476 361.896 367.914 348.816 384.598 348.125C394.656 347.709 403.206 352.25 408.901 356.249C424.768 365.506 435.643 365.292 442.609 363.456C457.231 359.582 461.003 346.263 477.083 344.201C485.214 343.339 493.426 344.745 500.808 348.263C524.696 359.582 551.362 350.652 561.157 332.907C572.547 312.293 561.383 279.355 531.661 269.017C518.736 264.527 514.361 262.225 492.535 254.78C464.636 245.259 454.364 239.964 450.957 238.166C439.918 232.343 434.386 229.362 430.401 225.526C412.799 208.346 423.146 190.588 407.066 166.78C404.149 162.454 393.588 147.488 373.987 141.275C362.515 137.577 350.153 137.706 338.761 141.644C327.369 145.581 317.564 153.114 310.822 163.108C301.267 224.122 291.703 285.144 282.131 346.175Z" fill="#FFE9F8" stroke="#222222" stroke-width="3" stroke-miterlimit="10"/>
<path d="M358.259 242.845C360.295 241.7 368.216 237.575 376.3 240.417C386.547 244.027 393.412 257.559 390.13 272.639C388.856 278.83 386.593 284.775 383.429 290.246C376.875 301.281 367.062 310.012 355.342 315.236C353.602 316.057 351.702 316.482 349.778 316.482C347.855 316.482 345.955 316.057 344.215 315.236C341.929 313.955 340.092 312.003 338.95 309.643C337.808 307.284 337.416 304.632 337.828 302.043C332.045 306.839 326.01 311.673 319.723 316.544C312.012 322.506 304.435 328.119 296.992 333.385C269.068 348.364 237.9 343.534 222.813 325.059C211.221 310.847 212.554 292.812 213.195 287.266C214.062 267.295 218.982 247.709 227.656 229.701C236.33 211.692 248.576 195.638 263.649 182.514C271.441 174.86 280.964 169.2 291.41 166.013C297.711 164.101 304.262 163.138 310.847 163.158C311.752 171.382 314.657 179.258 319.308 186.098C326.852 196.914 335.049 198.75 343.297 207.265C349.093 213.189 356.033 223.678 358.259 242.845Z" fill="#FFE9F8" stroke="#222222" stroke-width="3" stroke-miterlimit="10"/>
<path d="M290.48 238.568C295.092 244.623 301.236 249.336 308.278 252.221C315.319 255.107 323.003 256.059 330.536 254.981" stroke="#222222" stroke-width="3" stroke-miterlimit="10" stroke-linecap="round"/>
<path d="M228.772 209.026C231.131 214.729 235.098 219.623 240.188 223.112C245.614 226.757 252.022 228.661 258.557 228.57" stroke="#222222" stroke-width="3" stroke-miterlimit="10" stroke-linecap="round"/>
<path d="M335.225 218.106C359.729 237.298 363.3 269.382 349.055 286.989C339.324 299 321.647 303.829 304.158 300.471C279.503 292.057 267.27 264.363 276.825 241.461C285.94 219.578 312.268 208.535 335.225 218.106Z" stroke="#E36A6A" stroke-width="3" stroke-miterlimit="10" stroke-linecap="round"/>
<path d="M251.127 183.696C272.098 201.568 275.015 231.551 262.719 248.076C254.308 259.396 239.107 263.948 224.096 260.88C202.936 253.107 192.538 227.237 200.836 205.781C208.757 185.268 231.388 174.817 251.127 183.696Z" stroke="#E36A6A" stroke-width="3" stroke-miterlimit="10" stroke-linecap="round"/>
<path d="M328.738 256.893L327.946 272.073" stroke="#222222" stroke-width="3" stroke-miterlimit="10" stroke-linecap="round"/>
<path d="M319.158 255.182L313.412 272.538" stroke="#222222" stroke-width="3" stroke-miterlimit="10" stroke-linecap="round"/>
<path d="M310.206 252.931L300.588 268.665" stroke="#222222" stroke-width="3" stroke-miterlimit="10" stroke-linecap="round"/>
<path d="M300.21 249.674L289.172 264.25" stroke="#222222" stroke-width="3" stroke-miterlimit="10" stroke-linecap="round"/>
<path d="M292.265 242.492L282.106 253.862" stroke="#222222" stroke-width="3" stroke-miterlimit="10" stroke-linecap="round"/>
<path d="M254.798 228.394L249.467 244.014" stroke="#222222" stroke-width="3" stroke-miterlimit="10" stroke-linecap="round"/>
<path d="M243.696 227.614L236.982 241.159" stroke="#222222" stroke-width="3" stroke-miterlimit="10" stroke-linecap="round"/>
<path d="M236.127 220.923L226.296 233.588" stroke="#222222" stroke-width="3" stroke-miterlimit="10" stroke-linecap="round"/>
<path d="M230.545 212.623L219.368 223.011" stroke="#222222" stroke-width="3" stroke-miterlimit="10" stroke-linecap="round"/>
</svg>
